<svg width="34" height="32" viewBox="0 0 34 32" fill="none" xmlns="http://www.w3.org/2000/svg">
<g clip-path="url(#clip0_170_1457)">
<path d="M16.3445 1.39786C24.9305 1.39786 31.6573 7.87398 31.6573 16.1412C31.6573 19.4344 30.677 22.5536 28.821 25.1617C27.0164 27.6984 24.5191 29.5625 21.5929 30.5614C21.5929 30.3485 21.5961 30.0115 21.5977 29.592C21.6041 28.4798 21.6121 26.799 21.6121 25.3466C21.6121 24.4052 21.4402 23.6674 21.2008 23.0988C24.4147 22.6173 27.95 21.3621 27.95 15.2666C27.95 13.3854 27.2735 12.2887 26.3945 11.2682C26.6275 10.3936 26.8348 8.77029 26.0457 6.7866L25.8802 6.37184L25.4431 6.23514C25.2294 6.16835 24.9948 6.13417 24.7441 6.13417C23.3171 6.13417 21.3727 7.27592 20.4953 7.84291C19.2483 7.53689 17.9129 7.37689 16.6064 7.37689C15.3 7.37689 13.9646 7.53689 12.716 7.84291C11.8386 7.27747 9.88934 6.13417 8.46236 6.13417C8.21488 6.13417 7.98187 6.16679 7.77136 6.23203L7.33105 6.36718L7.16393 6.78349C6.37491 8.76097 6.59667 10.4153 6.81843 11.2666C5.91532 12.3447 5.40109 13.4274 5.40109 15.265C5.40109 21.3792 8.85767 22.6313 12.0057 23.1019C11.9045 23.3396 11.8209 23.5928 11.7566 23.8569C11.4722 23.9485 11.1155 24.0293 10.7362 24.0293C9.8813 24.0293 9.22406 23.6068 8.72268 22.7322C7.59781 20.7936 5.54733 20.6087 5.46055 20.6025L5.4268 20.5994L5.39306 20.5994L5.33681 20.5994C4.2489 20.5994 3.86644 21.0685 3.73788 21.4616C3.46952 22.2802 4.24086 22.9544 4.72295 23.2821L4.79205 23.3287L4.86758 23.3629C5.34163 23.5788 5.92014 24.5683 6.16922 25.1835C6.75737 26.9171 8.43664 27.8724 10.9017 27.8724C11.1524 27.8724 11.3886 27.8631 11.6056 27.8476C11.6088 28.5047 11.6136 29.199 11.6168 29.7629C11.6184 30.1047 11.6216 30.3905 11.6216 30.5738C5.52804 28.4751 1.44636 22.6965 1.44636 16.1412C1.44636 12.0806 2.96815 8.34155 5.73213 5.61378C8.48646 2.89534 12.2564 1.39786 16.3445 1.39786ZM16.3445 0.46582C7.35677 0.46582 0.482178 7.23087 0.482178 16.1412C0.482178 23.265 5.00578 29.3621 11.4658 31.5074C11.5654 31.526 11.6586 31.5338 11.7438 31.5338C12.3608 31.5338 12.5874 31.0973 12.5874 30.7307C12.5874 30.333 12.5681 28.1349 12.5681 26.7866C12.5681 26.7866 11.8386 26.9419 10.9033 26.9419C9.50688 26.9419 7.65084 26.5955 7.08037 24.8728C7.08037 24.8728 6.34116 23.0041 5.27896 22.521C5.27896 22.521 3.82305 21.5315 5.33842 21.5315C5.35288 21.5315 5.36735 21.5315 5.38342 21.5315C5.38342 21.5315 6.99681 21.6604 7.88385 23.1889C8.67608 24.573 9.76721 24.9629 10.7378 24.9629C11.5059 24.9629 12.1985 24.719 12.6083 24.5326C12.7578 23.5043 13.1788 22.7913 13.6448 22.3672C10.0227 21.9695 6.36848 21.4491 6.36848 15.2682C6.36848 13.5019 6.86021 12.6149 7.89831 11.4841C7.72958 11.0662 7.17839 9.34504 8.06704 7.12213C8.18596 7.08485 8.32094 7.06776 8.46396 7.06776C9.94719 7.06776 12.5376 8.85572 12.5376 8.85572C13.8328 8.49534 15.2261 8.30893 16.6064 8.30893C17.9868 8.30893 19.3801 8.49534 20.6753 8.85572C20.6753 8.85572 23.2593 7.06621 24.7441 7.06621C24.8903 7.06621 25.0253 7.0833 25.1458 7.12213C26.0329 9.35126 25.4833 11.0662 25.3146 11.4841C26.3511 12.6212 26.9858 13.5082 26.9858 15.2682C26.9858 21.4678 23.1693 21.9617 19.5472 22.3672C20.1434 22.8751 20.648 23.8382 20.648 25.3482C20.648 27.5136 20.6287 30.1916 20.6287 30.7183C20.6287 31.0849 20.8585 31.5214 21.4739 31.5214C21.5591 31.5214 21.6507 31.5136 21.7503 31.4949C28.2296 29.3621 32.623 23.265 32.623 16.1412C32.623 7.23087 25.3339 0.46582 16.3461 0.46582L16.3445 0.46582ZM6.23511 22.0379C6.1644 22.0379 6.10976 22.0612 6.08084 22.1031C6.03584 22.187 6.10012 22.2895 6.23028 22.3532C6.27207 22.3781 6.31706 22.3905 6.35884 22.3905C6.42312 22.3905 6.48097 22.3625 6.50829 22.3082C6.55328 22.2243 6.48901 22.1217 6.35884 22.0581C6.31385 22.0441 6.27207 22.0379 6.23511 22.0379ZM6.89235 22.58C6.85057 22.58 6.81201 22.594 6.78147 22.6235C6.69791 22.6872 6.71719 22.8348 6.82647 22.9575C6.89235 23.0227 6.97752 23.0647 7.05144 23.0647C7.09322 23.0647 7.13179 23.0507 7.16232 23.0212C7.24589 22.9575 7.2266 22.8099 7.11733 22.6872C7.05144 22.6219 6.96627 22.58 6.89235 22.58ZM7.5496 23.4095C7.51103 23.4095 7.47247 23.4219 7.44194 23.4468C7.33748 23.5105 7.33748 23.6783 7.44194 23.8258C7.51907 23.9346 7.63316 23.9983 7.72315 23.9983C7.75529 23.9983 7.78261 23.9905 7.80511 23.9734C7.90956 23.8895 7.90956 23.7233 7.80511 23.5757C7.74244 23.4732 7.6412 23.4095 7.5496 23.4095ZM8.33059 24.326C8.26952 24.326 8.21488 24.3478 8.17953 24.3897C8.07508 24.4736 8.11525 24.6662 8.26309 24.7874C8.34987 24.8744 8.4495 24.9163 8.53467 24.9163C8.59573 24.9163 8.64876 24.8946 8.68412 24.8526C8.76768 24.7687 8.72911 24.5761 8.60056 24.4549C8.51699 24.368 8.41575 24.326 8.33059 24.326ZM9.50849 25.0313C9.37511 25.0313 9.25298 25.0918 9.21602 25.1928C9.17103 25.3217 9.29958 25.4693 9.49403 25.5082C9.53902 25.5252 9.58562 25.533 9.63223 25.533C9.75596 25.533 9.86845 25.474 9.89577 25.3792C9.93433 25.2503 9.81221 25.1027 9.61776 25.0452C9.5808 25.0359 9.54384 25.0313 9.50849 25.0313ZM12.1343 25.081C12.1166 25.081 12.0989 25.081 12.0796 25.0841C11.8916 25.1291 11.7615 25.2518 11.7823 25.3994C11.7984 25.5035 11.9125 25.5781 12.0587 25.5781C12.0925 25.5781 12.1278 25.5734 12.1632 25.5656C12.3512 25.5206 12.4814 25.3979 12.4605 25.2705C12.4428 25.1602 12.2982 25.081 12.1327 25.081L12.1343 25.081ZM10.9146 25.2487C10.8985 25.2487 10.884 25.2487 10.868 25.2503C10.68 25.2503 10.5305 25.3528 10.5305 25.4817C10.5305 25.6169 10.6559 25.7148 10.8423 25.7148C10.8583 25.7148 10.876 25.7148 10.8937 25.7132C11.0817 25.7132 11.2312 25.6107 11.2312 25.4817C11.2312 25.3466 11.0881 25.2487 10.9146 25.2487Z" fill="white"/>
</g>
<defs>
<clipPath id="clip0_170_1457">
<rect width="33.1034" height="32" fill="white"/>
</clipPath>
</defs>
</svg>
