<svg width="34" height="32" viewBox="0 0 34 32" fill="none" xmlns="http://www.w3.org/2000/svg">
<g clip-path="url(#clip0_170_1459)">
<path d="M26.1837 24.9835L21.4303 24.9835L21.4303 18.7792C21.4303 16.9757 21.2086 16.1167 19.9439 16.1167C18.6792 16.1167 18.1489 16.811 18.1489 18.6798L18.1489 24.9835L13.3955 24.9835L13.3955 12.2549L17.9946 12.2549L17.9946 13.0813C18.7194 12.46 19.7832 11.9629 21.1539 11.9629C25.5875 11.9629 26.1853 15.0402 26.1853 18.0507L26.1853 24.9835L26.1837 24.9835ZM22.3945 24.0514L25.2195 24.0514L25.2195 18.0507C25.2195 14.8677 24.5398 12.8949 21.1523 12.8949C19.4859 12.8949 18.4076 13.7866 17.9882 14.5509L17.8516 14.7994L17.0272 14.7994L17.0272 13.1885L14.3565 13.1885L14.3565 24.053L17.1815 24.053L17.1815 18.6813C17.1815 17.726 17.1815 15.1862 19.9407 15.1862C22.3913 15.1862 22.3913 17.5241 22.3913 18.7808L22.3913 24.053L22.3945 24.0514Z" fill="white"/>
<path d="M9.59995 11.576C8.12315 11.576 6.92114 10.4141 6.92114 8.98649C6.92114 7.55891 8.12315 6.39697 9.59995 6.39697C11.0767 6.39697 12.2788 7.55891 12.2788 8.98649C12.2788 10.4141 11.0767 11.576 9.59995 11.576ZM9.59995 7.32746C8.65345 7.32746 7.88532 8.07154 7.88532 8.98493C7.88532 9.89833 8.65506 10.6424 9.59995 10.6424C10.5448 10.6424 11.3146 9.89833 11.3146 8.98493C11.3146 8.07154 10.5448 7.32746 9.59995 7.32746Z" fill="white"/>
<path d="M11.983 24.9834L7.22314 24.9834L7.22314 12.2549L11.983 12.2549L11.983 24.9834ZM8.18732 24.0514L11.0188 24.0514L11.0188 13.1869L8.18732 13.1869L8.18732 24.0514Z" fill="white"/>
<path d="M16.5518 1.39786C24.8807 1.39786 31.6573 7.94854 31.6573 15.9998C31.6573 24.0511 24.8807 30.6017 16.5518 30.6017C8.22292 30.6017 1.44636 24.0511 1.44636 15.9998C1.44636 7.94854 8.22292 1.39786 16.5518 1.39786ZM16.5518 0.46582C7.67655 0.46582 0.482178 7.42038 0.482178 15.9998C0.482178 24.5792 7.67655 31.5338 16.5518 31.5338C25.4271 31.5338 32.6214 24.5792 32.6214 15.9998C32.6214 7.42038 25.4271 0.46582 16.5518 0.46582Z" fill="white"/>
</g>
<defs>
<clipPath id="clip0_170_1459">
<rect width="33.1034" height="32" fill="white"/>
</clipPath>
</defs>
</svg>
