<svg width="34" height="32" viewBox="0 0 34 32" fill="none" xmlns="http://www.w3.org/2000/svg">
<g clip-path="url(#clip0_151_564)">
<path d="M26.1838 24.9835L21.4304 24.9835L21.4304 18.7792C21.4304 16.9757 21.2087 16.1167 19.944 16.1167C18.6793 16.1167 18.149 16.811 18.149 18.6798L18.149 24.9835L13.3956 24.9835L13.3956 12.2549L17.9948 12.2549L17.9948 13.0813C18.7195 12.46 19.7833 11.9629 21.154 11.9629C25.5877 11.9629 26.1854 15.0402 26.1854 18.0507L26.1854 24.9835L26.1838 24.9835ZM22.3946 24.0514L25.2197 24.0514L25.2197 18.0507C25.2197 14.8677 24.5399 12.8949 21.1524 12.8949C19.486 12.8949 18.4077 13.7866 17.9883 14.5509L17.8517 14.7994L17.0274 14.7994L17.0274 13.1885L14.3566 13.1885L14.3566 24.053L17.1816 24.053L17.1816 18.6813C17.1816 17.726 17.1816 15.1862 19.9408 15.1862C22.3914 15.1862 22.3914 17.5241 22.3914 18.7808L22.3914 24.053L22.3946 24.0514Z" fill="white"/>
<path d="M9.59995 11.576C8.12315 11.576 6.92114 10.4141 6.92114 8.98649C6.92114 7.55891 8.12315 6.39697 9.59995 6.39697C11.0767 6.39697 12.2788 7.55891 12.2788 8.98649C12.2788 10.4141 11.0767 11.576 9.59995 11.576ZM9.59995 7.32746C8.65345 7.32746 7.88532 8.07154 7.88532 8.98493C7.88532 9.89833 8.65506 10.6424 9.59995 10.6424C10.5448 10.6424 11.3146 9.89833 11.3146 8.98493C11.3146 8.07154 10.5448 7.32746 9.59995 7.32746Z" fill="white"/>
<path d="M11.9831 24.9834L7.22327 24.9834L7.22327 12.2549L11.9831 12.2549L11.9831 24.9834ZM8.18744 24.0514L11.0189 24.0514L11.0189 13.1869L8.18744 13.1869L8.18744 24.0514Z" fill="white"/>
<path d="M16.5517 1.3981C24.8806 1.3981 31.6571 7.94878 31.6571 16C31.6571 24.0513 24.8806 30.602 16.5517 30.602C8.2228 30.602 1.44623 24.0513 1.44623 16C1.44623 7.94878 8.2228 1.3981 16.5517 1.3981ZM16.5517 0.466065C7.67643 0.466065 0.482056 7.42063 0.482056 16C0.482056 24.5795 7.67643 31.534 16.5517 31.534C25.4269 31.534 32.6213 24.5795 32.6213 16C32.6213 7.42063 25.4269 0.466065 16.5517 0.466065Z" fill="white"/>
</g>
<defs>
<clipPath id="clip0_151_564">
<rect width="33.1034" height="32" fill="white"/>
</clipPath>
</defs>
</svg>
