<svg width="64" height="64" viewBox="0 0 64 64" fill="none" xmlns="http://www.w3.org/2000/svg">
<g style="mix-blend-mode:exclusion">
<path d="M32 63C49.1208 63 63 49.1208 63 32C63 14.8792 49.1208 1 32 1C14.8792 1 1 14.8792 1 32C1 49.1208 14.8792 63 32 63Z" stroke="white" stroke-width="2" stroke-linecap="round" stroke-linejoin="round"/>
<path d="M21.3444 25.544V38H19.7064V28.712L15.5664 38H14.4144L10.2564 28.694V38H8.61842V25.544H10.3824L14.9904 35.84L19.5984 25.544H21.3444ZM25.7603 26.786V30.98H30.3323V32.33H25.7603V36.65H30.8723V38H24.1223V25.436H30.8723V26.786H25.7603ZM43.2148 38H41.5768L34.9888 28.01V38H33.3508V25.436H34.9888L41.5768 35.408V25.436H43.2148V38ZM47.6091 25.454V33.392C47.6091 34.508 47.8791 35.336 48.4191 35.876C48.9711 36.416 49.7331 36.686 50.7051 36.686C51.6651 36.686 52.4151 36.416 52.9551 35.876C53.5071 35.336 53.7831 34.508 53.7831 33.392V25.454H55.4211V33.374C55.4211 34.418 55.2111 35.3 54.7911 36.02C54.3711 36.728 53.8011 37.256 53.0811 37.604C52.3731 37.952 51.5751 38.126 50.6871 38.126C49.7991 38.126 48.9951 37.952 48.2751 37.604C47.5671 37.256 47.0031 36.728 46.5831 36.02C46.1751 35.3 45.9711 34.418 45.9711 33.374V25.454H47.6091Z" fill="white"/>
<line x1="9" y1="18.25" x2="55" y2="18.25" stroke="white" stroke-width="1.5"/>
<line x1="9" y1="45.25" x2="55" y2="45.25" stroke="white" stroke-width="1.5"/>
</g>
</svg>
