<svg width="34" height="32" viewBox="0 0 34 32" fill="none" xmlns="http://www.w3.org/2000/svg">
<g clip-path="url(#clip0_151_562)">
<path d="M16.3444 1.3981C24.9304 1.3981 31.6571 7.87422 31.6571 16.1414C31.6571 19.4346 30.6769 22.5538 28.8209 25.162C27.0162 27.6987 24.519 29.5628 21.5927 30.5616C21.5927 30.3488 21.5959 30.0117 21.5975 29.5923C21.604 28.48 21.612 26.7993 21.612 25.3468C21.612 24.4055 21.4401 23.6676 21.2006 23.0991C24.4146 22.6175 27.9499 21.3624 27.9499 15.2668C27.9499 13.3857 27.2733 12.289 26.3943 11.2684C26.6273 10.3938 26.8346 8.77053 26.0456 6.78684L25.8801 6.37208L25.443 6.23539C25.2293 6.16859 24.9947 6.13441 24.744 6.13441C23.317 6.13441 21.3726 7.27616 20.4952 7.84315C19.2482 7.53713 17.9128 7.37713 16.6063 7.37713C15.2999 7.37713 13.9645 7.53713 12.7159 7.84315C11.8385 7.27772 9.88922 6.13441 8.46223 6.13441C8.21476 6.13441 7.98175 6.16704 7.77124 6.23228L7.33093 6.36742L7.16381 6.78373C6.37479 8.76121 6.59655 10.4156 6.81831 11.2668C5.9152 12.3449 5.40097 13.4276 5.40097 15.2653C5.40097 21.3795 8.85755 22.6315 12.0056 23.1022C11.9043 23.3399 11.8208 23.5931 11.7565 23.8571C11.4721 23.9488 11.1153 24.0296 10.7361 24.0296C9.88118 24.0296 9.22393 23.607 8.72256 22.7325C7.59769 20.7938 5.5472 20.609 5.46043 20.6028L5.42668 20.5997L5.39294 20.5997L5.33669 20.5997C4.24878 20.5997 3.86632 21.0688 3.73776 21.4618C3.4694 22.2804 4.24074 22.9546 4.72283 23.2824L4.79193 23.329L4.86746 23.3632C5.34151 23.5791 5.92002 24.5686 6.1691 25.1837C6.75725 26.9173 8.43652 27.8727 10.9016 27.8727C11.1523 27.8727 11.3885 27.8633 11.6055 27.8478C11.6087 28.5049 11.6135 29.1993 11.6167 29.7632C11.6183 30.1049 11.6215 30.3907 11.6215 30.574C5.52792 28.4754 1.44623 22.6967 1.44623 16.1414C1.44623 12.0808 2.96803 8.34179 5.732 5.61403C8.48634 2.89558 12.2563 1.3981 16.3444 1.3981ZM16.3444 0.466065C7.35664 0.466064 0.482056 7.23111 0.482056 16.1414C0.482056 23.2653 5.00566 29.3624 11.4656 31.5076C11.5653 31.5263 11.6585 31.534 11.7437 31.534C12.3607 31.534 12.5873 31.0975 12.5873 30.7309C12.5873 30.3333 12.568 28.1352 12.568 26.7868C12.568 26.7868 11.8385 26.9422 10.9032 26.9422C9.50676 26.9422 7.65072 26.5958 7.08025 24.8731C7.08025 24.8731 6.34104 23.0043 5.27884 22.5212C5.27884 22.5212 3.82293 21.5317 5.3383 21.5317C5.35276 21.5317 5.36722 21.5317 5.38329 21.5317C5.38329 21.5317 6.99668 21.6606 7.88373 23.1892C8.67596 24.5733 9.76709 24.9632 10.7377 24.9632C11.5058 24.9632 12.1984 24.7193 12.6082 24.5329C12.7576 23.5045 13.1787 22.7915 13.6447 22.3674C10.0226 21.9698 6.36836 21.4494 6.36836 15.2684C6.36836 13.5022 6.86009 12.6152 7.89819 11.4843C7.72946 11.0665 7.17827 9.34529 8.06692 7.12238C8.18584 7.08509 8.32082 7.06801 8.46384 7.06801C9.94707 7.06801 12.5375 8.85597 12.5375 8.85597C13.8327 8.49558 15.2259 8.30917 16.6063 8.30917C17.9867 8.30917 19.3799 8.49558 20.6752 8.85597C20.6752 8.85597 23.2592 7.06645 24.744 7.06645C24.8902 7.06645 25.0252 7.08354 25.1457 7.12238C26.0328 9.3515 25.4832 11.0665 25.3145 11.4843C26.3509 12.6214 26.9857 13.5084 26.9857 15.2684C26.9857 21.468 23.1692 21.962 19.5471 22.3674C20.1432 22.8754 20.6478 23.8385 20.6478 25.3484C20.6478 27.5138 20.6286 30.1919 20.6286 30.7185C20.6286 31.0851 20.8583 31.5216 21.4738 31.5216C21.559 31.5216 21.6506 31.5138 21.7502 31.4952C28.2295 29.3624 32.6229 23.2653 32.6229 16.1414C32.6229 7.23111 25.3337 0.466065 16.346 0.466065L16.3444 0.466065ZM6.23498 22.0381C6.16428 22.0381 6.10964 22.0614 6.08072 22.1033C6.03572 22.1872 6.1 22.2898 6.23016 22.3534C6.27194 22.3783 6.31694 22.3907 6.35872 22.3907C6.423 22.3907 6.48085 22.3628 6.50817 22.3084C6.55316 22.2245 6.48888 22.122 6.35872 22.0583C6.31372 22.0443 6.27194 22.0381 6.23498 22.0381ZM6.89223 22.5802C6.85045 22.5802 6.81188 22.5942 6.78135 22.6237C6.69779 22.6874 6.71707 22.835 6.82635 22.9577C6.89223 23.023 6.9774 23.0649 7.05132 23.0649C7.0931 23.0649 7.13167 23.0509 7.1622 23.0214C7.24576 22.9577 7.22648 22.8101 7.11721 22.6874C7.05132 22.6222 6.96615 22.5802 6.89223 22.5802ZM7.54948 23.4098C7.51091 23.4098 7.47235 23.4222 7.44181 23.447C7.33736 23.5107 7.33736 23.6785 7.44181 23.8261C7.51895 23.9348 7.63304 23.9985 7.72303 23.9985C7.75517 23.9985 7.78249 23.9907 7.80499 23.9736C7.90944 23.8898 7.90944 23.7235 7.80499 23.576C7.74231 23.4734 7.64108 23.4098 7.54948 23.4098ZM8.33046 24.3263C8.2694 24.3263 8.21476 24.348 8.17941 24.3899C8.07496 24.4738 8.11513 24.6665 8.26297 24.7876C8.34975 24.8746 8.44938 24.9166 8.53455 24.9166C8.59561 24.9166 8.64864 24.8948 8.684 24.8529C8.76756 24.769 8.72899 24.5764 8.60043 24.4552C8.51687 24.3682 8.41563 24.3263 8.33046 24.3263ZM9.50837 25.0315C9.37499 25.0315 9.25286 25.0921 9.2159 25.1931C9.1709 25.322 9.29946 25.4696 9.49391 25.5084C9.5389 25.5255 9.5855 25.5333 9.6321 25.5333C9.75584 25.5333 9.86833 25.4742 9.89565 25.3795C9.93421 25.2505 9.81208 25.103 9.61764 25.0455C9.58068 25.0362 9.54372 25.0315 9.50837 25.0315ZM12.1341 25.0812C12.1165 25.0812 12.0988 25.0812 12.0795 25.0843C11.8915 25.1294 11.7613 25.2521 11.7822 25.3997C11.7983 25.5037 11.9124 25.5783 12.0586 25.5783C12.0924 25.5783 12.1277 25.5736 12.1631 25.5659C12.3511 25.5208 12.4812 25.3981 12.4604 25.2707C12.4427 25.1604 12.2981 25.0812 12.1325 25.0812L12.1341 25.0812ZM10.9145 25.249C10.8984 25.249 10.8839 25.249 10.8679 25.2505C10.6798 25.2505 10.5304 25.3531 10.5304 25.482C10.5304 25.6171 10.6557 25.715 10.8421 25.715C10.8582 25.715 10.8759 25.715 10.8936 25.7134C11.0816 25.7134 11.231 25.6109 11.231 25.482C11.231 25.3468 11.088 25.249 10.9145 25.249Z" fill="white"/>
</g>
<defs>
<clipPath id="clip0_151_562">
<rect width="33.1034" height="32" fill="white"/>
</clipPath>
</defs>
</svg>
